# xmcd CD database file
#
# Track frame offsets:
#	150
#	19122
#	37054
#	51773
#	65083
#	82810
#	97454
#	115809
#	132471
#	149123
#	161800
#	181644
#	198076
#	212356
#	230683
#
# Disc length: 3372 seconds
#
# Revision: 4
# Processed by: cddbd v1.5.1PL0 Copyright (c) Steve Scherf et al.
# Submitted via: CDex 1.50
#
DISCID=db0d2a0f
DTITLE=Matogrosso and Mathias - Matogrosso and Mathias  Ao Vivo
DYEAR=1900
DGENRE=sertaneja
TTITLE0=Na Hora do Adeus (Ao vivo)
TTITLE1=De Igual Prá Igual (Ao Vivo)
TTITLE2=Boate Azul (Ao Vivo)
TTITLE3=De Déu Em Déu (Ao Vivo)
TTITLE4=Cabelo Loiro (Ao Vivo)
TTITLE5=Idas e Voltas (Ao Vivo)
TTITLE6=Coração Cigano (Ao Vivo)
TTITLE7=24 Horas de Amor (Ao Vivo)
TTITLE8=Sábado (Ao Vivo)
TTITLE9=Tó Que Tó (Ao Vivo)
TTITLE10=Frente a Frente (Ao Vivo)
TTITLE11=Pele de Maça (Ao Vivo)
TTITLE12=Espinhos da Vida (Ao Vivo)
TTITLE13=Na Segunda Feira (Ao Vivo)
TTITLE14=O Amor Maior (Ao Vivo)
EXTD=
EXTT0=
EXTT1=
EXTT2=
EXTT3=
EXTT4=
EXTT5=
EXTT6=
EXTT7=
EXTT8=
EXTT9=
EXTT10=
EXTT11=
EXTT12=
EXTT13=
EXTT14=
PLAYORDER=
